<?xml version="1.0" standalone="no"?>
<!DOCTYPE svg PUBLIC "-//W3C//DTD SVG 20010904//EN"
 "http://www.w3.org/TR/2001/REC-SVG-20010904/DTD/svg10.dtd">
<svg version="1.0" xmlns="http://www.w3.org/2000/svg"
 width="4800.000000pt" height="2000.000000pt" viewBox="0 0 4800.000000 2000.000000"
 preserveAspectRatio="xMidYMid meet">
<metadata>
Created by potrace 1.16, written by Peter Selinger 2001-2019
</metadata>
<g transform="translate(0.000000,2000.000000) scale(0.100000,-0.100000)"
fill="#000000" stroke="none">
<path d="M5480 18453 l0 -1548 -255 -255 -255 -255 0 -115 0 -115 255 255
c140 140 255 250 255 245 0 -6 0 -1043 0 -2305 l0 -2295 250 250 250 250 0
-1095 0 -1095 2260 2260 c1243 1243 2260 2262 2260 2265 0 3 -175 181 -390
395 -277 276 -390 396 -390 412 0 28 -25 53 -53 53 -14 0 -62 40 -139 117
l-118 118 296 296 c187 187 294 301 289 309 -4 6 -14 9 -22 6 -8 -3 -11 -1 -8
4 3 6 -1 10 -9 10 -9 0 -16 -5 -16 -10 0 -6 -6 -5 -14 2 -15 14 0 31 19 21 5
-3 -135 140 -312 318 -275 276 -322 327 -317 346 10 38 -20 73 -63 73 l-36 0
22 -24 c13 -14 18 -26 12 -30 -5 -4 -13 3 -16 15 -4 11 -13 18 -20 15 -8 -3
-11 2 -8 12 2 12 -47 67 -153 172 -87 85 -151 146 -144 135 14 -20 14 -20 -7
-1 -13 10 -20 23 -17 27 7 12 -3 11 -27 -1 -10 -6 -19 -8 -19 -6 0 3 9 10 21
16 15 8 24 8 34 0 20 -17 28 5 13 37 -11 23 -21 29 -53 31 -37 3 -53 16 -199
160 -87 86 -155 150 -151 142 5 -8 4 -11 0 -7 -12 10 -15 38 -4 31 5 -3 9 8 9
25 0 36 -34 63 -70 56 -20 -4 -50 21 -184 153 -88 86 -153 148 -145 137 13
-19 13 -19 -4 -6 -12 10 -15 17 -7 25 18 18 11 64 -12 80 -45 32 -76 13 -42
-25 9 -10 11 -19 5 -23 -5 -4 -13 3 -16 15 -5 13 -12 18 -22 14 -12 -4 -13 -2
-5 8 9 10 -24 48 -150 173 -88 87 -157 153 -153 145 6 -10 4 -12 -4 -7 -8 5
-6 15 8 34 11 15 261 268 556 562 l535 535 -112 3 -112 3 -498 -498 -498 -498
-142 140 c-78 77 -137 133 -132 125 5 -9 0 -6 -11 6 -15 18 -24 20 -37 13 -10
-6 -18 -8 -18 -5 0 3 10 10 21 17 17 9 23 8 30 -2 16 -26 23 22 8 50 -11 20
-25 27 -58 32 -40 5 -59 22 -349 312 l-307 307 -552 0 -553 0 0 -1547z m1813
-5113 c-543 -541 -1002 -997 -1020 -1013 l-33 -29 0 2033 0 2034 1020 -1020
1021 -1020 -988 -985z"/>
<path d="M13520 19495 l0 -505 3127 0 3128 0 -505 505 -505 505 -2622 0 -2623
0 0 -505z"/>
<path d="M22 19670 l-22 -9 0 -1963 0 -1963 307 308 308 307 1135 -1135 1135
-1135 805 805 805 805 -58 57 -57 58 -748 -748 -747 -747 -1078 1078 -1077
1077 610 610 c335 335 610 613 610 616 0 3 -58 63 -129 134 -125 125 -129 129
-114 152 35 53 -17 108 -77 83 l-31 -13 -151 151 c-132 132 -149 153 -142 174
25 75 -22 116 -96 84 -11 -4 -59 37 -163 142 l-147 149 7 48 c5 40 3 50 -12
61 -23 17 -67 18 -83 2 -10 -10 -45 20 -169 145 -122 122 -154 160 -145 169
15 15 16 53 2 79 -12 21 -78 27 -96 9 -7 -7 -61 42 -163 144 -136 137 -152
156 -142 174 31 59 -16 115 -77 92z"/>
<path d="M44172 18973 c0 -15 5 -34 12 -42 8 -11 8 -15 -1 -18 -10 -4 -13
-378 -13 -1826 l0 -1822 938 938 937 938 -762 760 c-479 477 -767 758 -774
753 -8 -4 -9 -3 -5 4 6 9 -84 103 -287 300 l-44 44 -1 -29z"/>
<path d="M44928 15277 l-1088 -1092 -240 240 -240 240 0 -385 0 -384 47 -48
46 -47 -46 -47 -47 -47 0 -86 0 -85 36 35 c19 18 60 58 91 88 l56 55 1962
-1965 c1079 -1080 2081 -2083 2228 -2229 l267 -264 0 387 0 388 -2037 2034
-2038 2035 1044 1040 c574 572 1047 1040 1051 1040 3 0 449 -443 991 -985
l984 -986 3 93 3 92 -988 988 c-543 543 -990 988 -993 987 -3 0 -494 -492
-1092 -1092z"/>
<path d="M1147 14670 c3 -11 9 -17 14 -15 4 3 2 -7 -6 -22 -12 -23 -14 -151
-15 -798 0 -423 -3 -931 -6 -1127 -4 -203 -3 -358 2 -358 5 0 272 263 594 585
l584 584 -28 30 c-16 17 -33 28 -38 25 -5 -3 -8 2 -6 12 2 11 -2 18 -9 17 -7
-2 -13 2 -13 8 0 8 -6 7 -17 -2 -17 -13 -17 -12 -3 5 13 16 12 20 -5 32 -10 8
-23 14 -28 14 -4 0 -6 4 -2 9 3 5 1 12 -4 15 -17 11 -23 -13 -8 -29 8 -8 16
-13 18 -12 3 1 2 -2 -2 -6 -3 -4 -14 -5 -23 -1 -13 5 -17 14 -12 35 4 22 0 33
-22 51 -15 13 -30 27 -32 33 -3 5 -8 9 -12 8 -5 -2 -8 2 -8 8 0 8 -6 7 -17 -2
-17 -13 -17 -12 -3 5 13 16 12 20 -5 32 -10 8 -23 14 -28 14 -4 0 -6 4 -2 9 3
5 1 12 -4 15 -17 11 -23 -13 -8 -29 8 -8 16 -13 18 -12 3 1 2 -2 -2 -6 -3 -4
-14 -5 -23 -1 -13 5 -16 14 -13 33 3 14 -1 34 -8 45 -13 17 -17 17 -32 5 -16
-13 -17 -12 -4 4 9 11 10 17 2 17 -6 0 -10 6 -8 13 1 6 -3 11 -9 10 -6 -1 -17
9 -24 22 -7 14 -21 27 -31 30 -10 4 -18 10 -16 15 1 4 -1 8 -5 9 -8 1 -8 -6
-1 -26 3 -7 10 -10 17 -6 8 4 7 2 -1 -7 -6 -7 -19 -10 -29 -6 -12 5 -15 14
-11 36 5 23 1 33 -21 52 -15 13 -29 28 -31 33 -2 6 -6 9 -11 8 -4 -1 -13 9
-20 22 -7 14 -21 27 -31 30 -10 4 -18 9 -16 13 1 4 -1 8 -5 10 -10 3 -11 0 -3
-20 4 -10 12 -15 18 -11 6 3 7 1 3 -5 -18 -30 -54 4 -42 39 3 8 -1 23 -9 33
-13 17 -17 17 -32 5 -16 -13 -17 -12 -4 4 9 11 10 17 2 17 -6 0 -10 6 -9 13 2
6 -1 12 -7 11 -9 0 -67 55 -72 69 -2 4 -4 6 -5 5 -4 -2 -74 66 -74 72 1 3 -3
7 -8 10 -20 11 -72 65 -69 72 7 15 -34 27 -47 15 -12 -10 -12 -9 -2 4 15 21
-7 45 -26 29 -9 -7 -9 -7 -2 2 10 12 -5 51 -18 45 -7 -3 -71 59 -71 69 0 3
-14 16 -30 30 -27 22 -29 23 -24 4z"/>
<path d="M3018 12743 l-267 -268 219 -217 c120 -120 222 -218 227 -218 4 0
127 119 273 265 l265 265 -220 220 c-121 121 -222 220 -225 220 -3 0 -125
-120 -272 -267z"/>
<path d="M1157 10882 l-1157 -1157 0 -1645 0 -1645 270 -270 270 -270 400 400
400 400 0 1740 0 1740 715 715 715 715 -220 217 c-121 120 -223 218 -227 218
-5 0 -529 -521 -1166 -1158z"/>
<path d="M44040 10293 c0 -560 0 -1034 0 -1053 0 -34 -10 -25 -340 305 l-340
340 0 -95 0 -95 340 -340 340 -339 0 -443 c0 -244 -2 -443 -4 -443 -2 0 -155
152 -340 338 l-336 337 0 -192 0 -192 340 -341 340 -341 0 -2242 0 -2242 -345
-345 -345 -345 0 -385 1 -384 337 337 c185 185 340 337 345 337 4 0 7 -556 7
-1235 l0 -1235 405 0 404 0 -6 1641 -6 1641 1239 1239 c681 681 1243 1239
1249 1239 5 0 159 -149 340 -330 l330 -331 3 1133 2 1133 -412 412 -413 413
413 413 413 413 -3 92 -3 92 -458 -458 -457 -458 -267 268 c-148 148 -273 266
-280 264 -7 -3 -10 0 -7 7 2 7 -213 229 -479 495 l-483 482 -24 -22 c-20 -19
-21 -20 -7 -2 9 11 17 24 17 28 0 11 -32 41 -44 41 -6 0 -11 5 -11 10 0 18
-16 36 -26 29 -5 -3 -8 0 -7 8 2 7 -3 12 -10 10 -6 -1 -11 3 -10 10 2 7 -4 12
-12 13 -8 0 -15 5 -15 10 0 18 -16 36 -26 29 -5 -3 -8 0 -7 8 2 7 -3 12 -10
10 -6 -1 -11 3 -10 10 2 7 -3 12 -9 13 -7 0 -12 3 -10 6 4 11 -25 39 -34 33
-5 -3 -8 0 -7 8 2 7 -3 12 -10 10 -6 -1 -11 3 -10 10 2 7 -4 12 -12 13 -8 0
-15 5 -15 10 0 18 -16 36 -26 29 -5 -3 -8 0 -7 8 2 7 -3 12 -10 10 -6 -1 -11
3 -10 10 2 7 -4 12 -12 13 -8 0 -15 5 -15 10 0 18 -16 36 -26 29 -5 -3 -8 0
-7 8 2 7 -3 12 -9 11 -7 -2 -12 2 -10 9 1 7 -5 12 -13 13 -8 0 -15 5 -15 10 0
18 -16 36 -26 29 -5 -3 -8 0 -7 8 2 7 -3 12 -10 10 -8 -1 -11 1 -8 6 7 12 -48
64 -58 55 -4 -5 -6 -1 -4 7 2 9 -3 14 -12 12 -8 -2 -12 0 -7 4 9 10 -43 65
-55 58 -5 -3 -7 0 -6 8 2 7 -3 12 -10 10 -8 -1 -11 1 -8 6 5 8 -823 842 -837
842 -4 0 -7 -458 -7 -1017z m1857 -3095 l1043 -1043 -1042 -1042 c-574 -574
-1046 -1043 -1050 -1043 -5 0 -8 938 -8 2085 0 1147 3 2085 7 2085 5 0 477
-469 1050 -1042z"/>
<path d="M34985 9598 c-3 -7 -4 -1294 -3 -2860 l3 -2847 350 349 c193 192
1479 1479 2860 2859 l2510 2511 -2837 0 -2836 0 3 -25 c2 -21 0 -23 -12 -13
-10 8 -11 14 -4 16 6 2 9 8 5 13 -8 13 -34 11 -39 -3z"/>
<path d="M41681 9075 c-14 -14 -20 -28 -16 -36 5 -8 4 -10 -4 -5 -7 5 -168
-148 -441 -422 -237 -236 -430 -433 -430 -436 0 -4 5 -4 12 0 7 4 8 3 4 -5 -4
-6 -12 -9 -17 -5 -14 8 -82 -63 -73 -77 5 -8 3 -9 -5 -4 -8 4 -21 -2 -33 -15
-15 -16 -17 -24 -9 -29 9 -6 8 -11 -4 -21 -13 -11 -15 -10 -9 4 11 29 -10 17
-59 -34 -28 -29 -45 -55 -41 -62 5 -7 3 -8 -5 -3 -8 4 -21 -2 -33 -15 -15 -16
-17 -24 -9 -29 9 -6 8 -11 -4 -21 -13 -11 -15 -10 -9 4 11 29 -10 17 -59 -34
-28 -29 -45 -55 -41 -62 5 -7 3 -8 -5 -3 -8 4 -21 -2 -33 -15 -15 -16 -17 -24
-9 -29 9 -6 8 -11 -4 -21 -13 -11 -14 -10 -9 5 5 13 3 16 -7 13 -8 -3 -13 -12
-13 -21 1 -9 -2 -14 -7 -11 -14 8 -82 -63 -73 -77 5 -8 3 -9 -5 -4 -8 4 -21
-2 -33 -15 -15 -16 -17 -24 -9 -29 9 -6 8 -11 -4 -21 -13 -11 -15 -10 -9 4 11
29 -10 17 -59 -34 -28 -29 -45 -55 -41 -62 5 -7 3 -8 -5 -3 -8 4 -21 -2 -33
-15 -15 -16 -17 -24 -9 -29 9 -6 8 -11 -4 -21 -13 -11 -14 -10 -9 5 5 13 3 16
-7 13 -8 -3 -13 -12 -13 -21 1 -9 -2 -14 -7 -11 -14 8 -82 -63 -73 -77 5 -8 3
-9 -5 -4 -8 4 -21 -2 -33 -15 -15 -16 -17 -24 -9 -29 9 -6 8 -11 -4 -21 -13
-11 -15 -10 -9 4 11 29 -10 17 -59 -34 -28 -29 -45 -55 -41 -62 5 -7 3 -8 -5
-3 -8 4 -21 -2 -33 -15 -15 -16 -17 -24 -9 -29 9 -6 8 -11 -4 -21 -13 -11 -15
-10 -9 4 11 29 -10 17 -59 -34 -28 -29 -45 -55 -41 -62 5 -7 3 -8 -5 -3 -8 4
-21 -2 -33 -15 -15 -16 -17 -24 -9 -29 9 -6 8 -11 -4 -21 -13 -11 -15 -10 -9
4 3 9 1 16 -5 16 -10 0 -15 -14 -12 -33 1 -5 -3 -6 -9 -2 -15 9 -83 -62 -74
-76 5 -8 3 -9 -5 -4 -8 4 -21 -2 -33 -15 -15 -16 -17 -24 -9 -29 9 -6 8 -11
-4 -21 -13 -11 -15 -10 -9 4 11 29 -10 17 -59 -34 -28 -29 -45 -55 -41 -62 5
-7 3 -8 -5 -3 -8 4 -21 -2 -33 -15 -15 -16 -17 -24 -9 -29 9 -6 8 -11 -4 -21
-13 -11 -15 -10 -9 4 3 9 1 16 -5 16 -10 0 -15 -14 -12 -33 1 -5 -3 -6 -9 -2
-15 9 -83 -62 -74 -76 5 -8 3 -9 -5 -4 -8 4 -21 -2 -33 -15 -15 -16 -17 -24
-9 -29 9 -6 8 -11 -4 -21 -13 -11 -15 -10 -9 4 11 29 -10 17 -59 -34 -28 -29
-45 -55 -41 -62 5 -7 3 -8 -5 -3 -8 4 -21 -2 -33 -15 -15 -16 -17 -24 -9 -29
9 -6 8 -11 -4 -21 -13 -11 -14 -10 -9 5 5 13 3 16 -7 13 -8 -3 -13 -11 -12
-17 2 -6 -1 -10 -5 -8 -10 2 -132 -116 -132 -128 0 -4 7 -4 16 -1 9 3 12 2 9
-5 -4 -5 -14 -7 -23 -5 -12 4 -40 -18 -89 -68 -73 -75 -86 -93 -57 -82 9 3 12
2 9 -5 -4 -5 -14 -7 -23 -5 -12 4 -40 -18 -89 -68 -73 -75 -86 -93 -57 -82 9
3 12 2 9 -5 -4 -5 -14 -7 -23 -5 -12 4 -40 -18 -89 -68 -73 -75 -86 -93 -57
-82 9 3 12 2 9 -5 -4 -5 -14 -7 -23 -5 -12 4 -40 -18 -89 -68 -73 -75 -86 -93
-57 -82 9 3 12 2 9 -5 -4 -5 -14 -7 -23 -5 -12 4 -40 -18 -89 -68 -73 -75 -86
-93 -57 -82 9 3 12 2 9 -5 -4 -5 -14 -7 -23 -5 -12 4 -40 -18 -89 -68 -73 -75
-86 -93 -57 -82 9 3 12 2 9 -5 -4 -5 -14 -7 -24 -4 -11 3 -31 -10 -60 -39
l-43 -44 151 -150 c83 -82 151 -154 151 -158 0 -5 -170 -179 -377 -386 l-378
-378 329 -329 328 -329 -1204 -1206 -1205 -1206 -3109 0 -3109 0 -465 -465
-465 -465 4320 0 4320 0 465 465 465 465 -1018 0 c-559 0 -1017 4 -1017 8 0 4
498 504 1106 1111 l1106 1104 1577 -1577 c1160 -1160 1582 -1576 1599 -1576
l22 0 0 737 0 738 81 -81 81 -82 -21 -21 c-25 -25 -27 -63 -5 -85 22 -22 71
-20 91 4 17 20 20 18 121 -82 l103 -103 -2 4038 c-1 2220 -4 4037 -8 4036 -3
0 -17 -11 -30 -24z m-646 -6019 c-4 -990 -8 -1802 -10 -1804 -1 -2 -411 403
-909 900 l-907 902 907 907 c499 500 912 905 917 902 6 -3 6 -714 2 -1807z"/>
<path d="M1000 6105 l-335 -335 338 -338 337 -337 0 673 c0 369 -1 672 -3 672
-1 0 -153 -151 -337 -335z"/>
<path d="M28220 3179 l0 -874 440 440 441 440 -301 298 c-183 182 -305 295
-312 291 -7 -5 -8 -3 -3 5 8 13 -62 79 -78 73 -5 -1 -6 2 -2 7 6 11 -63 77
-77 73 -5 -1 -7 1 -4 6 6 10 0 18 -57 71 l-47 45 0 -875z"/>
<path d="M42623 1747 c2 -24 7 -49 11 -55 4 -6 -1 -8 -13 -5 -12 3 -20 -2 -23
-14 -6 -24 6 -68 18 -66 12 2 6 -309 -7 -321 -12 -13 -12 -73 1 -81 16 -10 12
-306 -5 -328 -13 -19 -12 -33 6 -72 11 -22 6 -280 -6 -351 -4 -27 -3 -44 4
-48 14 -9 15 -312 1 -321 -5 -3 -10 -24 -10 -46 l0 -39 54 0 c50 0 54 2 61 27
4 19 0 34 -14 53 l-19 27 156 156 157 156 24 -20 c61 -50 138 35 81 89 -19 18
-17 20 140 177 145 145 161 158 173 141 9 -13 23 -17 52 -14 33 2 41 8 50 31
7 22 6 35 -8 59 -9 16 -17 35 -17 42 0 20 -690 697 -702 690 -6 -4 -8 -3 -5 3
8 12 -117 136 -127 126 -4 -4 -6 -1 -4 7 2 8 -3 14 -10 12 -8 -1 -11 2 -8 7 4
5 2 12 -4 16 -7 4 -9 -9 -7 -38z"/>
<path d="M26096 914 c-9 -23 -7 -26 7 -18 10 6 10 4 0 -7 -10 -10 -13 -114
-13 -451 l0 -438 725 0 725 0 460 460 c253 253 460 462 460 465 0 3 -531 5
-1179 5 -1056 -1 -1180 -2 -1185 -16z"/>
</g>
</svg>
